<?xml version="1.0" encoding="UTF-8"?>
<svg version="1.1" xmlns="http://www.w3.org/2000/svg" width="256" height="256">
<path d="M0 0 C1.28390625 -0.01417969 2.5678125 -0.02835938 3.890625 -0.04296875 C8.83987286 0.2525835 13.07809444 1.63019815 17.75 3.1875 C18.45151152 4.5028341 19.11525925 5.83867592 19.75 7.1875 C20.23597656 7.64640625 20.72195312 8.1053125 21.22265625 8.578125 C22.93151407 10.37876291 23.45124612 11.71197519 24.1875 14.0625 C25.46045329 17.73992061 27.25030634 20.18786761 29.75 23.1875 C31.6104679 28.87763234 31.65849123 35.59184611 29.5 41.1875 C27.765175 44.16148572 26.98284041 45.1842047 23.75 46.1875 C22.76 45.5275 21.77 44.8675 20.75 44.1875 C20.75 44.8475 20.75 45.5075 20.75 46.1875 C20.09 46.1875 19.43 46.1875 18.75 46.1875 C18.42 47.1775 18.09 48.1675 17.75 49.1875 C17.42 49.5175 17.09 49.8475 16.75 50.1875 C16.62843055 51.8264293 16.57030026 53.47014626 16.5390625 55.11328125 C16.07213406 73.44819806 14.07341115 85.70238328 3.75 101.1875 C3.42 101.8475 3.09 102.5075 2.75 103.1875 C1.66805757 104.13029498 0.5599847 105.04335801 -0.5625 105.9375 C-3.13293994 108.07253889 -4.54832092 109.63924311 -6.4375 112.5 C-8.47037199 115.51425847 -8.91701871 115.52090374 -12.25 116.1875 C-12.58 116.8475 -12.91 117.5075 -13.25 118.1875 C-13.58 118.8475 -13.91 119.5075 -14.25 120.1875 C-15.57594105 120.54912029 -16.90938457 120.88478039 -18.25 121.1875 C-18.58 122.1775 -18.91 123.1675 -19.25 124.1875 C-20.24 124.5175 -21.23 124.8475 -22.25 125.1875 C-22.58 125.8475 -22.91 126.5075 -23.25 127.1875 C-24.24 127.5175 -25.23 127.8475 -26.25 128.1875 C-29.79013307 131.16121178 -31.3817882 134.70173903 -32.25 139.1875 C-32.25 140.1775 -32.25 141.1675 -32.25 142.1875 C-26.64 142.1875 -21.03 142.1875 -15.25 142.1875 C-14.92 142.8475 -14.59 143.5075 -14.25 144.1875 C-13.63382813 144.32285156 -13.01765625 144.45820313 -12.3828125 144.59765625 C-9.67889942 145.34544174 -8.85208735 146.45031671 -7.125 148.625 C-5.54703382 150.58314974 -4.03150132 152.40599868 -2.25 154.1875 C-2.40869626 157.20272901 -3.07479015 158.92468523 -4.75 161.4375 C-8.3659875 163.96869125 -11.92177534 164.00253313 -16.25 164.1875 C-16.188125 164.97125 -16.12625 165.755 -16.0625 166.5625 C-16.124375 167.42875 -16.18625 168.295 -16.25 169.1875 C-20.18304472 171.80952981 -23.51625069 171.43898527 -28.07421875 171.3828125 C-29.36632011 171.37856766 -29.36632011 171.37856766 -30.68452454 171.37423706 C-33.43565769 171.36304237 -36.18646525 171.33793921 -38.9375 171.3125 C-40.80272967 171.30246927 -42.66796445 171.29334359 -44.53320312 171.28515625 C-49.1055942 171.26310538 -53.67774189 171.22858049 -58.25 171.1875 C-58.91 169.8675 -59.57 168.5475 -60.25 167.1875 C-61.36375 167.249375 -62.4775 167.31125 -63.625 167.375 C-64.82125 167.313125 -66.0175 167.25125 -67.25 167.1875 C-69.25 164.1875 -69.25 164.1875 -68.875 161.6875 C-68.66875 160.8625 -68.4625 160.0375 -68.25 159.1875 C-68.25 156.08198334 -68.7893715 154.83488916 -70.25 152.1875 C-75.28795499 153.47928333 -78.869262 155.87447212 -83.06640625 158.8046875 C-85.25 160.1875 -85.25 160.1875 -88.6875 161.3125 C-91.40926227 161.91126362 -91.40926227 161.91126362 -92.3125 164.25 C-92.7765625 165.2090625 -92.7765625 165.2090625 -93.25 166.1875 C-95.875 166.9375 -95.875 166.9375 -98.25 167.1875 C-98.25 167.8475 -98.25 168.5075 -98.25 169.1875 C-99.03503906 169.23648438 -99.82007812 169.28546875 -100.62890625 169.3359375 C-106.44940107 169.75015676 -111.72251926 170.30580443 -117.25 172.1875 C-120.53519475 173.28256492 -122.98663415 173.28710608 -126.4375 173.25 C-127.52417969 173.24097656 -128.61085938 173.23195312 -129.73046875 173.22265625 C-130.56191406 173.21105469 -131.39335937 173.19945312 -132.25 173.1875 C-132.58 172.5275 -132.91 171.8675 -133.25 171.1875 C-135.40825637 172.15499423 -137.0400609 172.96843311 -138.6875 174.6875 C-144.73354413 180.49170236 -155.27528114 180.5571683 -163.11328125 180.45703125 C-167.31874534 180.0956651 -170.42101478 178.9213801 -174.25 177.1875 C-174.91 177.1875 -175.57 177.1875 -176.25 177.1875 C-177.66898766 174.53872304 -178.56911019 172.10735181 -179.25 169.1875 C-179.85328125 169.05472656 -180.4565625 168.92195312 -181.078125 168.78515625 C-181.87734375 168.60855469 -182.6765625 168.43195313 -183.5 168.25 C-184.28890625 168.07597656 -185.0778125 167.90195313 -185.890625 167.72265625 C-187.35234048 167.3911082 -188.81048715 167.04275283 -190.26171875 166.66796875 C-192.28308769 166.15182878 -192.28308769 166.15182878 -194.50390625 165.828125 C-200.74429474 164.7722217 -200.74429474 164.7722217 -203.25 161.875 C-205.11245353 156.86965613 -205.11245353 156.86965613 -205.25 154.1875 C-203.47254016 150.91323187 -201.58833714 149.6625792 -198.25 148.1875 C-196.6761703 147.73626211 -195.09122064 147.32295096 -193.5 146.9375 C-188.47874161 145.60754508 -183.62119126 143.97867074 -178.75 142.1875 C-178.05551758 141.93838867 -177.36103516 141.68927734 -176.64550781 141.43261719 C-172.82394954 140.03171692 -172.82394954 140.03171692 -169.65625 137.5625 C-167.52565551 135.47925205 -165.15065344 135.64271204 -162.25 135.1875 C-160.09150273 134.23954682 -157.96469447 133.21628489 -155.875 132.125 C-154.81539062 131.57714844 -153.75578125 131.02929688 -152.6640625 130.46484375 C-151.86742187 130.04332031 -151.07078125 129.62179688 -150.25 129.1875 C-150.25 128.5275 -150.25 127.8675 -150.25 127.1875 C-147.91492857 125.56592262 -145.9053381 124.3416972 -143.125 123.6875 C-141.13920189 123.33178582 -141.13920189 123.33178582 -139.8125 121.6875 C-137.76486377 119.72176922 -136.01252651 119.56081439 -133.25 119.1875 C-132.755 117.7025 -132.755 117.7025 -132.25 116.1875 C-130.60448038 115.47022222 -128.93577711 114.80424772 -127.25 114.1875 C-125.84371142 112.78121142 -124.4488442 111.36345403 -123.0625 109.9375 C-120.98103345 107.90228826 -118.91696893 106.04379602 -116.6875 104.1875 C-112.85154244 100.94361415 -110.03370312 97.36305468 -107.25 93.1875 C-106.63125 93.06375 -106.0125 92.94 -105.375 92.8125 C-102.21606589 91.88340173 -101.10652112 89.81223675 -99.25 87.1875 C-98.92 86.5275 -98.59 85.8675 -98.25 85.1875 C-97.610625 85.06375 -96.97125 84.94 -96.3125 84.8125 C-95.631875 84.60625 -94.95125 84.4 -94.25 84.1875 C-93.92 83.5275 -93.59 82.8675 -93.25 82.1875 C-92.92 81.5275 -92.59 80.8675 -92.25 80.1875 C-90.92405895 79.82587971 -89.59061543 79.49021961 -88.25 79.1875 C-87.755 77.7025 -87.755 77.7025 -87.25 76.1875 C-86.2909375 75.9709375 -86.2909375 75.9709375 -85.3125 75.75 C-84.631875 75.564375 -83.95125 75.37875 -83.25 75.1875 C-82.92 74.5275 -82.59 73.8675 -82.25 73.1875 C-81.92 72.5275 -81.59 71.8675 -81.25 71.1875 C-80.63125 71.06375 -80.0125 70.94 -79.375 70.8125 C-76.02662981 69.82768524 -75.10358103 67.02579595 -73.25 64.1875 C-71.93252676 63.49001417 -70.60085807 62.81790043 -69.25 62.1875 C-68.92 61.5275 -68.59 60.8675 -68.25 60.1875 C-66.98775586 57.66301173 -65.74988984 57.35932336 -63.25 56.1875 C-61.31201737 53.41489701 -61.31201737 53.41489701 -60.25 51.1875 C-59.51007813 50.51847656 -58.77015625 49.84945312 -58.0078125 49.16015625 C-54.36629839 45.59042826 -52.41224584 41.12399117 -50.125 36.625 C-46.00326646 28.77224559 -41.56958323 22.52543812 -35.26953125 16.3046875 C-33.01992611 14.43395348 -33.01992611 14.43395348 -33.25 12.1875 C-32.610625 12.084375 -31.97125 11.98125 -31.3125 11.875 C-30.631875 11.648125 -29.95125 11.42125 -29.25 11.1875 C-28.92 10.1975 -28.59 9.2075 -28.25 8.1875 C-22.57733612 3.74225462 -17.38597372 1.56307756 -10.25 1.1875 C-6.68450163 -0.00099946 -3.75898083 0.01872002 0 0 Z M-34.25 139.1875 C-33.25 142.1875 -33.25 142.1875 -33.25 142.1875 Z M-18.25 161.1875 C-17.25 164.1875 -17.25 164.1875 -17.25 164.1875 Z M-198.25 163.1875 C-194.25 164.1875 -194.25 164.1875 -194.25 164.1875 Z " fill="#007E45" transform="translate(215.25,37.8125)"/>
<path d="M0 0 C1.28390625 -0.01417969 2.5678125 -0.02835938 3.890625 -0.04296875 C8.83987286 0.2525835 13.07809444 1.63019815 17.75 3.1875 C18.45151152 4.5028341 19.11525925 5.83867592 19.75 7.1875 C20.23597656 7.64640625 20.72195312 8.1053125 21.22265625 8.578125 C22.93151407 10.37876291 23.45124612 11.71197519 24.1875 14.0625 C25.46045329 17.73992061 27.25030634 20.18786761 29.75 23.1875 C31.6104679 28.87763234 31.65849123 35.59184611 29.5 41.1875 C27.765175 44.16148572 26.98284041 45.1842047 23.75 46.1875 C22.76 45.5275 21.77 44.8675 20.75 44.1875 C20.75 44.8475 20.75 45.5075 20.75 46.1875 C20.09 46.1875 19.43 46.1875 18.75 46.1875 C18.42 47.1775 18.09 48.1675 17.75 49.1875 C17.42 49.5175 17.09 49.8475 16.75 50.1875 C16.62843055 51.8264293 16.57030026 53.47014626 16.5390625 55.11328125 C16.07213406 73.44819806 14.07341115 85.70238328 3.75 101.1875 C3.42 101.8475 3.09 102.5075 2.75 103.1875 C1.66805757 104.13029498 0.5599847 105.04335801 -0.5625 105.9375 C-3.13293994 108.07253889 -4.54832092 109.63924311 -6.4375 112.5 C-8.47037199 115.51425847 -8.91701871 115.52090374 -12.25 116.1875 C-12.58 116.8475 -12.91 117.5075 -13.25 118.1875 C-13.58 118.8475 -13.91 119.5075 -14.25 120.1875 C-15.57594105 120.54912029 -16.90938457 120.88478039 -18.25 121.1875 C-18.58 122.1775 -18.91 123.1675 -19.25 124.1875 C-20.24 124.5175 -21.23 124.8475 -22.25 125.1875 C-22.58 125.8475 -22.91 126.5075 -23.25 127.1875 C-24.24 127.5175 -25.23 127.8475 -26.25 128.1875 C-29.79013307 131.16121178 -31.3817882 134.70173903 -32.25 139.1875 C-32.25 140.1775 -32.25 141.1675 -32.25 142.1875 C-26.64 142.1875 -21.03 142.1875 -15.25 142.1875 C-14.92 142.8475 -14.59 143.5075 -14.25 144.1875 C-13.63382813 144.32285156 -13.01765625 144.45820313 -12.3828125 144.59765625 C-9.67889942 145.34544174 -8.85208735 146.45031671 -7.125 148.625 C-5.54703382 150.58314974 -4.03150132 152.40599868 -2.25 154.1875 C-2.40869626 157.20272901 -3.07479015 158.92468523 -4.75 161.4375 C-8.3659875 163.96869125 -11.92177534 164.00253313 -16.25 164.1875 C-16.188125 164.97125 -16.12625 165.755 -16.0625 166.5625 C-16.124375 167.42875 -16.18625 168.295 -16.25 169.1875 C-20.18304472 171.80952981 -23.51625069 171.43898527 -28.07421875 171.3828125 C-29.36632011 171.37856766 -29.36632011 171.37856766 -30.68452454 171.37423706 C-33.43565769 171.36304237 -36.18646525 171.33793921 -38.9375 171.3125 C-40.80272967 171.30246927 -42.66796445 171.29334359 -44.53320312 171.28515625 C-49.1055942 171.26310538 -53.67774189 171.22858049 -58.25 171.1875 C-58.91 169.8675 -59.57 168.5475 -60.25 167.1875 C-61.36375 167.249375 -62.4775 167.31125 -63.625 167.375 C-64.82125 167.313125 -66.0175 167.25125 -67.25 167.1875 C-69.25 164.1875 -69.25 164.1875 -68.875 161.6875 C-68.66875 160.8625 -68.4625 160.0375 -68.25 159.1875 C-68.25 156.08198334 -68.7893715 154.83488916 -70.25 152.1875 C-75.28795499 153.47928333 -78.869262 155.87447212 -83.06640625 158.8046875 C-85.25 160.1875 -85.25 160.1875 -88.6875 161.3125 C-91.40926227 161.91126362 -91.40926227 161.91126362 -92.3125 164.25 C-92.7765625 165.2090625 -92.7765625 165.2090625 -93.25 166.1875 C-95.875 166.9375 -95.875 166.9375 -98.25 167.1875 C-98.25 167.8475 -98.25 168.5075 -98.25 169.1875 C-99.03503906 169.23648438 -99.82007812 169.28546875 -100.62890625 169.3359375 C-106.44940107 169.75015676 -111.72251926 170.30580443 -117.25 172.1875 C-120.53519475 173.28256492 -122.98663415 173.28710608 -126.4375 173.25 C-127.52417969 173.24097656 -128.61085938 173.23195312 -129.73046875 173.22265625 C-130.56191406 173.21105469 -131.39335937 173.19945312 -132.25 173.1875 C-132.58 172.5275 -132.91 171.8675 -133.25 171.1875 C-135.40825637 172.15499423 -137.0400609 172.96843311 -138.6875 174.6875 C-144.73354413 180.49170236 -155.27528114 180.5571683 -163.11328125 180.45703125 C-167.31874534 180.0956651 -170.42101478 178.9213801 -174.25 177.1875 C-174.91 177.1875 -175.57 177.1875 -176.25 177.1875 C-177.66898766 174.53872304 -178.56911019 172.10735181 -179.25 169.1875 C-179.85328125 169.05472656 -180.4565625 168.92195312 -181.078125 168.78515625 C-181.87734375 168.60855469 -182.6765625 168.43195313 -183.5 168.25 C-184.28890625 168.07597656 -185.0778125 167.90195313 -185.890625 167.72265625 C-187.35234048 167.3911082 -188.81048715 167.04275283 -190.26171875 166.66796875 C-192.28308769 166.15182878 -192.28308769 166.15182878 -194.50390625 165.828125 C-200.74429474 164.7722217 -200.74429474 164.7722217 -203.25 161.875 C-205.11245353 156.86965613 -205.11245353 156.86965613 -205.25 154.1875 C-203.47254016 150.91323187 -201.58833714 149.6625792 -198.25 148.1875 C-196.6761703 147.73626211 -195.09122064 147.32295096 -193.5 146.9375 C-188.47874161 145.60754508 -183.62119126 143.97867074 -178.75 142.1875 C-178.05551758 141.93838867 -177.36103516 141.68927734 -176.64550781 141.43261719 C-172.82394954 140.03171692 -172.82394954 140.03171692 -169.65625 137.5625 C-167.52565551 135.47925205 -165.15065344 135.64271204 -162.25 135.1875 C-160.09150273 134.23954682 -157.96469447 133.21628489 -155.875 132.125 C-154.81539062 131.57714844 -153.75578125 131.02929688 -152.6640625 130.46484375 C-151.86742187 130.04332031 -151.07078125 129.62179688 -150.25 129.1875 C-150.25 128.5275 -150.25 127.8675 -150.25 127.1875 C-147.91492857 125.56592262 -145.9053381 124.3416972 -143.125 123.6875 C-141.13920189 123.33178582 -141.13920189 123.33178582 -139.8125 121.6875 C-137.76486377 119.72176922 -136.01252651 119.56081439 -133.25 119.1875 C-132.755 117.7025 -132.755 117.7025 -132.25 116.1875 C-130.60448038 115.47022222 -128.93577711 114.80424772 -127.25 114.1875 C-125.84371142 112.78121142 -124.4488442 111.36345403 -123.0625 109.9375 C-120.98103345 107.90228826 -118.91696893 106.04379602 -116.6875 104.1875 C-112.85154244 100.94361415 -110.03370312 97.36305468 -107.25 93.1875 C-106.63125 93.06375 -106.0125 92.94 -105.375 92.8125 C-102.21606589 91.88340173 -101.10652112 89.81223675 -99.25 87.1875 C-98.92 86.5275 -98.59 85.8675 -98.25 85.1875 C-97.610625 85.06375 -96.97125 84.94 -96.3125 84.8125 C-95.631875 84.60625 -94.95125 84.4 -94.25 84.1875 C-93.92 83.5275 -93.59 82.8675 -93.25 82.1875 C-92.92 81.5275 -92.59 80.8675 -92.25 80.1875 C-90.92405895 79.82587971 -89.59061543 79.49021961 -88.25 79.1875 C-87.755 77.7025 -87.755 77.7025 -87.25 76.1875 C-86.2909375 75.9709375 -86.2909375 75.9709375 -85.3125 75.75 C-84.631875 75.564375 -83.95125 75.37875 -83.25 75.1875 C-82.92 74.5275 -82.59 73.8675 -82.25 73.1875 C-81.92 72.5275 -81.59 71.8675 -81.25 71.1875 C-80.63125 71.06375 -80.0125 70.94 -79.375 70.8125 C-76.02662981 69.82768524 -75.10358103 67.02579595 -73.25 64.1875 C-71.93252676 63.49001417 -70.60085807 62.81790043 -69.25 62.1875 C-68.92 61.5275 -68.59 60.8675 -68.25 60.1875 C-66.98775586 57.66301173 -65.74988984 57.35932336 -63.25 56.1875 C-61.31201737 53.41489701 -61.31201737 53.41489701 -60.25 51.1875 C-59.51007813 50.51847656 -58.77015625 49.84945312 -58.0078125 49.16015625 C-54.36629839 45.59042826 -52.41224584 41.12399117 -50.125 36.625 C-46.00326646 28.77224559 -41.56958323 22.52543812 -35.26953125 16.3046875 C-33.01992611 14.43395348 -33.01992611 14.43395348 -33.25 12.1875 C-32.610625 12.084375 -31.97125 11.98125 -31.3125 11.875 C-30.631875 11.648125 -29.95125 11.42125 -29.25 11.1875 C-28.92 10.1975 -28.59 9.2075 -28.25 8.1875 C-22.57733612 3.74225462 -17.38597372 1.56307756 -10.25 1.1875 C-6.68450163 -0.00099946 -3.75898083 0.01872002 0 0 Z M-39.25 27.1875 C-43.72450287 33.23175237 -47.60364392 39.6347251 -50.8125 46.4375 C-57.85348254 61.01899425 -71.45252634 70.97899727 -84.09130859 80.47827148 C-89.76778802 84.75966221 -95.04409414 89.34524198 -100.25 94.1875 C-101.60022913 95.35872148 -102.95426491 96.52557233 -104.3125 97.6875 C-111.43328366 103.9378071 -117.63360575 110.50583611 -123.30151367 118.09692383 C-127.36896083 123.48392379 -131.89485853 128.36860326 -136.5234375 133.2734375 C-138.61754376 135.51155106 -140.60737519 137.76882395 -142.5625 140.125 C-150.87233339 149.69144234 -160.55840187 158.15515726 -171.0546875 165.22265625 C-173.61150663 167.51105486 -173.98179407 168.82326475 -174.25 172.1875 C-168.52761833 176.8880278 -162.43672207 176.85044629 -155.25 176.1875 C-147.78719472 174.34526662 -141.42941891 170.00240679 -135.03515625 165.89453125 C-132.25 164.1875 -132.25 164.1875 -129.25 163.1875 C-129.270625 163.991875 -129.29125 164.79625 -129.3125 165.625 C-129.54633621 168.12104885 -129.54633621 168.12104885 -128.25 169.1875 C-121.10073929 170.26663369 -117.06213202 167.72314373 -111.08203125 163.9140625 C-108.51283584 162.34773923 -106.07177002 161.20890853 -103.25 160.1875 C-104.24 161.8375 -105.23 163.4875 -106.25 165.1875 C-100.3341132 164.84605609 -97.23714792 163.04714443 -93.0625 159.0625 C-91.17359597 157.27200139 -89.35430457 155.74866249 -87.25 154.1875 C-85.09375 154.53125 -85.09375 154.53125 -83.25 155.1875 C-77.43564788 152.07024828 -72.80471908 145.58980863 -69.25 140.1875 C-69.25 139.5275 -69.25 138.8675 -69.25 138.1875 C-68.59 138.5175 -67.93 138.8475 -67.25 139.1875 C-66.92 140.1775 -66.59 141.1675 -66.25 142.1875 C-63.22630383 141.86568755 -62.35342454 141.31032996 -60.35546875 138.9375 C-59.72253906 138.03 -59.08960938 137.1225 -58.4375 136.1875 C-54.71058628 131.29679166 -54.71058628 131.29679166 -50.5625 130.3125 C-49.469375 130.27125 -48.37625 130.23 -47.25 130.1875 C-43.02196634 127.4242969 -40.97994029 124.41416891 -38.625 120 C-35.5766307 114.2963769 -35.5766307 114.2963769 -32.25 113.1875 C-32.58 114.5075 -32.91 115.8275 -33.25 117.1875 C-28.79540724 115.38286754 -27.4669793 112.77435193 -25.2890625 108.65234375 C-23.79639915 105.11147693 -23.45859137 102.01167514 -23.25 98.1875 C-22.26 98.1875 -21.27 98.1875 -20.25 98.1875 C-20.98608351 100.75474208 -21.73813623 103.31540506 -22.5 105.875 C-22.70496094 106.59623047 -22.90992188 107.31746094 -23.12109375 108.06054688 C-24.46309181 112.51354044 -25.90573283 115.80479298 -29.25 119.1875 C-30.920625 119.8371875 -30.920625 119.8371875 -32.625 120.5 C-36.8797201 122.48064557 -38.18727248 124.50264815 -40.7890625 128.25390625 C-43.73687494 132.15542271 -47.06004347 133.91126009 -51.75 135 C-55.9233007 136.41594131 -57.22558407 138.12025388 -59.828125 141.52734375 C-61.25 143.1875 -61.25 143.1875 -64.125 144.6875 C-66.63841954 146.09113345 -66.63841954 146.09113345 -66.875 149.5625 C-66.10157372 154.04837242 -64.93690867 155.56569828 -61.25 158.1875 C-58.62883489 158.5134856 -58.62883489 158.5134856 -56.25 157.1875 C-53.15786708 153.80286803 -51.61303119 150.82276464 -50.1875 146.5 C-46.05710562 136.20559199 -36.87825238 130.51614105 -28.12109375 124.29296875 C-10.05711471 111.04605079 7.37397382 96.02402401 11.75 73.1875 C12.40605418 68.0502737 12.79392727 62.91728128 13.125 57.75 C13.23250446 56.40164726 13.34057482 55.05333953 13.44921875 53.70507812 C13.53558594 52.42181641 13.62195313 51.13855469 13.7109375 49.81640625 C13.79134277 48.66213135 13.87174805 47.50785645 13.95458984 46.31860352 C13.72195089 42.75822809 12.73159703 41.09860742 10.75 38.1875 C9.51863444 32.70902927 8.99944051 27.86875326 11.3125 22.6875 C13.98364023 19.947869 16.46558272 18.12829203 19.75 16.1875 C18.38410617 11.717302 16.68677047 9.70033221 12.75 7.1875 C-7.16517907 -1.55574935 -26.6111061 12.10915237 -39.25 27.1875 Z M-34.25 139.1875 C-33.25 142.1875 -33.25 142.1875 -33.25 142.1875 Z M-18.25 161.1875 C-17.25 164.1875 -17.25 164.1875 -17.25 164.1875 Z M-198.25 163.1875 C-194.25 164.1875 -194.25 164.1875 -194.25 164.1875 Z " fill="#25211F" transform="translate(215.25,37.8125)"/>
<path d="M0 0 C0.33 0 0.66 0 1 0 C4.86677255 17.20093861 2.84217254 35.5717077 -6.37890625 50.50390625 C-7.5738558 52.34384062 -8.78303493 54.1745524 -10 56 C-10.495 56.99 -10.495 56.99 -11 58 C-12.08194243 58.94279498 -13.1900153 59.85585801 -14.3125 60.75 C-16.88293994 62.88503889 -18.29832092 64.45174311 -20.1875 67.3125 C-22.22037199 70.32675847 -22.66701871 70.33340374 -26 71 C-26.33 71.66 -26.66 72.32 -27 73 C-27.33 73.66 -27.66 74.32 -28 75 C-29.32594105 75.36162029 -30.65938457 75.69728039 -32 76 C-32.495 77.485 -32.495 77.485 -33 79 C-33.99 79.33 -34.98 79.66 -36 80 C-36.33 80.66 -36.66 81.32 -37 82 C-37.99 82.33 -38.98 82.66 -40 83 C-43.54013307 85.97371178 -45.1317882 89.51423903 -46 94 C-46 94.99 -46 95.98 -46 97 C-40.39 97 -34.78 97 -29 97 C-28.67 97.66 -28.34 98.32 -28 99 C-27.38382813 99.13535156 -26.76765625 99.27070313 -26.1328125 99.41015625 C-23.42889942 100.15794174 -22.60208735 101.26281671 -20.875 103.4375 C-19.29703382 105.39564974 -17.78150132 107.21849868 -16 109 C-16.15869626 112.01522901 -16.82479015 113.73718523 -18.5 116.25 C-22.1159875 118.78119125 -25.67177534 118.81503313 -30 119 C-29.938125 119.78375 -29.87625 120.5675 -29.8125 121.375 C-29.874375 122.24125 -29.93625 123.1075 -30 124 C-33.93304472 126.62202981 -37.26625069 126.25148527 -41.82421875 126.1953125 C-42.68561966 126.1924826 -43.54702057 126.18965271 -44.43452454 126.18673706 C-47.18565769 126.17554237 -49.93646525 126.15043921 -52.6875 126.125 C-54.55272967 126.11496927 -56.41796445 126.10584359 -58.28320312 126.09765625 C-62.8555942 126.07560538 -67.42774189 126.04108049 -72 126 C-72.66 124.68 -73.32 123.36 -74 122 C-75.11375 122.061875 -76.2275 122.12375 -77.375 122.1875 C-78.57125 122.125625 -79.7675 122.06375 -81 122 C-83 119 -83 119 -82.625 116.5 C-82.41875 115.675 -82.2125 114.85 -82 114 C-82 113.01 -82 112.02 -82 111 C-81.68911632 109.32900023 -81.35919668 107.66128463 -81 106 C-80.443125 106.804375 -79.88625 107.60875 -79.3125 108.4375 C-77.22256666 111.09109491 -77.22256666 111.09109491 -74.5625 112.125 C-71.85230005 112.21473256 -71.85230005 112.21473256 -69.5 110.3125 C-66.37362806 106.84630502 -65.09053291 102.48606186 -63.6015625 98.1328125 C-60.05269948 91.1908902 -53.58084925 86.72185072 -47.375 82.25 C-27.92221781 67.90534679 -7.84707929 52.94187585 -3 28 C-2.4567616 23.65311694 -2.14153424 19.30918414 -1.875 14.9375 C-1.72981431 12.73806418 -1.58152546 10.53883034 -1.4296875 8.33984375 C-1.37022949 7.38456787 -1.31077148 6.42929199 -1.24951172 5.44506836 C-1 3 -1 3 0 0 Z M-48 94 C-47 97 -47 97 -47 97 Z M-32 116 C-31 119 -31 119 -31 119 Z " fill="#252120" transform="translate(229,83)"/>
<path d="M0 0 C0.99 0 1.98 0 3 0 C1.86378529 8.13290533 0.62257873 15.4703079 -5.4375 21.375 C-8 23 -8 23 -10.4375 23.75 C-13.31456988 25.15344872 -14.11338446 26.30033692 -15.9375 28.875 C-19.35642386 33.68940298 -22.62867151 36.44951303 -28.5 37.8125 C-32.68908889 39.23379802 -33.94990377 40.98058793 -36.578125 44.37890625 C-38.43335879 46.49407665 -40.30633346 47.28697062 -43 48 C-43.33 50.64 -43.66 53.28 -44 56 C-44.556875 55.62875 -45.11375 55.2575 -45.6875 54.875 C-47.99498304 53.72775821 -47.99498304 53.72775821 -50.3671875 54.7578125 C-52.94710183 55.97504211 -55.11819398 57.34630587 -57.4375 59 C-60.20633966 60.91049937 -62.20158946 62.06597473 -65.4375 63.125 C-68.15926227 63.72376362 -68.15926227 63.72376362 -69.0625 66.0625 C-69.5265625 67.0215625 -69.5265625 67.0215625 -70 68 C-72.625 68.75 -72.625 68.75 -75 69 C-75 69.66 -75 70.32 -75 71 C-75.78503906 71.04898438 -76.57007812 71.09796875 -77.37890625 71.1484375 C-83.19940107 71.56265676 -88.47251926 72.11830443 -94 74 C-97.28519475 75.09506492 -99.73663415 75.09960608 -103.1875 75.0625 C-104.27417969 75.05347656 -105.36085938 75.04445313 -106.48046875 75.03515625 C-107.72763672 75.01775391 -107.72763672 75.01775391 -109 75 C-109.33 74.34 -109.66 73.68 -110 73 C-112.15825637 73.96749423 -113.7900609 74.78093311 -115.4375 76.5 C-121.48354413 82.30420236 -132.02528114 82.3696683 -139.86328125 82.26953125 C-144.06874534 81.9081651 -147.17101478 80.7338801 -151 79 C-151.66 79 -152.32 79 -153 79 C-154.4731994 76.25002779 -155.22404875 74.10380501 -156 71 C-158.64 70.34 -161.28 69.68 -164 69 C-164 68.34 -164 67.68 -164 67 C-165.45833358 65.37485532 -165.45833358 65.37485532 -167 64 C-166.34 63.01 -165.68 62.02 -165 61 C-165.60328125 61.10699219 -166.2065625 61.21398437 -166.828125 61.32421875 C-173.4373928 62.31560892 -173.4373928 62.31560892 -176.5625 60.5625 C-177.036875 60.046875 -177.51125 59.53125 -178 59 C-177.67 58.01 -177.34 57.02 -177 56 C-174.7447202 54.95554665 -172.59219327 54.11366615 -170.25 53.3125 C-168.7771915 52.78036912 -167.30454307 52.24779506 -165.83203125 51.71484375 C-163.40783425 50.85249884 -160.98239325 49.99378399 -158.55615234 49.13720703 C-141.48550662 43.06189755 -125.67086247 35.0657882 -110 26 C-111.37154504 28.95409701 -112.98863724 31.44008376 -115 34 C-113.68 33.67 -112.36 33.34 -111 33 C-117.62380114 42.63951548 -126.11967219 50.47069642 -135 58 C-136.1059249 58.9578069 -137.21135175 59.91618902 -138.31640625 60.875 C-139.5022666 61.89622545 -140.68846566 62.91705772 -141.875 63.9375 C-142.44710205 64.43499756 -143.0192041 64.93249512 -143.60864258 65.44506836 C-147.7721377 69 -147.7721377 69 -150 69 C-150 70.65 -150 72.3 -150 74 C-143.34141124 77.55124734 -136.90104112 78.2310672 -129.52734375 76.37890625 C-123.10966573 74.03097527 -117.47772974 70.32752789 -111.78515625 66.609375 C-109 65 -109 65 -106 65 C-105.67 66.65 -105.34 68.3 -105 70 C-97.78729237 70.97094141 -93.84216153 68.52800781 -87.83203125 64.62890625 C-85.11280046 63.06487971 -83.08412196 62.40031565 -80 62 C-80.66 63.32 -81.32 64.64 -82 66 C-75.77964893 65.57293112 -72.63621869 62.46929363 -68.32421875 58.41796875 C-66.8046875 57.0546875 -66.8046875 57.0546875 -64 55 C-61.796875 55.34765625 -61.796875 55.34765625 -60 56 C-57.35412766 53.60414714 -57.35412766 53.60414714 -55 51 C-54.34 51 -53.68 51 -53 51 C-52.773125 50.484375 -52.54625 49.96875 -52.3125 49.4375 C-50.5024447 46.07596873 -48.26003596 43.07088856 -46 40 C-45.01 40.33 -44.02 40.66 -43 41 C-43 41.99 -43 42.98 -43 44 C-39.00739061 42.18517755 -37.08875145 39.87319336 -34.625 36.375 C-31.45982786 32.0951368 -31.45982786 32.0951368 -27.375 31.25 C-26.26125 31.1675 -25.1475 31.085 -24 31 C-19.21841936 27.41381452 -16.63139835 22.33929536 -13.6484375 17.23046875 C-13.10445312 16.49441406 -12.56046875 15.75835937 -12 15 C-11.01 15 -10.02 15 -9 15 C-9.33 16.32 -9.66 17.64 -10 19 C-4.02840716 14.02367264 -1.72133648 7.45338697 0 0 Z " fill="#27231F" transform="translate(192,136)"/>
<path d="M0 0 C0 3.72516076 -0.73411204 4.12027064 -3.28540039 6.70532227 C-4.36266136 7.80645103 -4.36266136 7.80645103 -5.46168518 8.92982483 C-6.24905563 9.7173967 -7.03642609 10.50496857 -7.84765625 11.31640625 C-8.6523082 12.12867172 -9.45696014 12.94093719 -10.28599548 13.77781677 C-11.99463151 15.49727578 -13.7072844 17.21275095 -15.42358398 18.92456055 C-18.04145697 21.54146476 -20.63733899 24.17887815 -23.23242188 26.81835938 C-24.89452919 28.48567609 -26.55790087 30.15173353 -28.22265625 31.81640625 C-28.99585709 32.60600235 -29.76905792 33.39559845 -30.56568909 34.2091217 C-34.88185389 38.47102874 -37.95474619 40.99937523 -44 42 C-44.33 41.34 -44.66 40.68 -45 40 C-48.3 40 -51.6 40 -55 40 C-55 37 -55 37 -54 35 C-54.60328125 35.10699219 -55.2065625 35.21398437 -55.828125 35.32421875 C-62.4373928 36.31560892 -62.4373928 36.31560892 -65.5625 34.5625 C-66.036875 34.046875 -66.51125 33.53125 -67 33 C-66.67 32.01 -66.34 31.02 -66 30 C-63.7447202 28.95554665 -61.59219327 28.11366615 -59.25 27.3125 C-57.7771915 26.78036912 -56.30454307 26.24779506 -54.83203125 25.71484375 C-52.40783425 24.85249884 -49.98239325 23.99378399 -47.55615234 23.13720703 C-30.98151618 17.23842347 -14.46971446 10.14570964 0 0 Z " fill="#007E0E" transform="translate(81,162)"/>
<path d="M0 0 C0.99 0.33 1.98 0.66 3 1 C4.44500201 1.12312997 5.89422748 1.20052768 7.34375 1.24609375 C8.17777344 1.27896484 9.01179688 1.31183594 9.87109375 1.34570312 C11.62356603 1.40689644 13.37617886 1.46418895 15.12890625 1.51757812 C15.96292969 1.55173828 16.79695313 1.58589844 17.65625 1.62109375 C18.79803711 1.65867798 18.79803711 1.65867798 19.96289062 1.69702148 C22 2 22 2 25 4 C18.73 4 12.46 4 6 4 C6 4.66 6 5.32 6 6 C6.87736816 6.029729 6.87736816 6.029729 7.77246094 6.06005859 C10.43208025 6.15553481 13.09093838 6.26512142 15.75 6.375 C16.67039063 6.4059375 17.59078125 6.436875 18.5390625 6.46875 C19.42851562 6.50742188 20.31796875 6.54609375 21.234375 6.5859375 C22.05131836 6.6173584 22.86826172 6.6487793 23.70996094 6.68115234 C26.16832958 7.02343693 27.85759999 7.7739277 30 9 C30 9.66 30 10.32 30 11 C-4.45240101 11.27379949 -4.45240101 11.27379949 -9 9 C-8.3125 6.625 -8.3125 6.625 -7 4 C-4.5 2.8125 -4.5 2.8125 -2 2 C-1.34 1.34 -0.68 0.68 0 0 Z " fill="#A77D61" transform="translate(178,184)"/>
<path d="M0 0 C4.26429972 4.04561769 5.90210375 5.94417874 6.1875 11.9375 C6.15827158 15.11170617 5.80180892 17.29728662 4 20 C3.34 19.34 2.68 18.68 2 18 C0.27500785 17.28396552 -1.45035272 16.56876301 -3.1796875 15.86328125 C-5.78386145 14.62825455 -7.84576125 12.8931189 -10 11 C-9.43997584 7.46340908 -8.32225676 6.04440308 -5.5625 3.8125 C-4.94503906 3.30332031 -4.32757813 2.79414062 -3.69140625 2.26953125 C-2 1 -2 1 0 0 Z " fill="#E71F15" transform="translate(236,57)"/>
<path d="M0 0 C0.53625 0.28875 1.0725 0.5775 1.625 0.875 C4.35280484 2.16711808 7.12612718 3.08558592 10 4 C8.68 4.33 7.36 4.66 6 5 C7.72226496 8.24849977 7.72226496 8.24849977 11 9 C12.47965926 9.14573058 13.96403843 9.24663268 15.44921875 9.31640625 C16.29677734 9.35830078 17.14433594 9.40019531 18.01757812 9.44335938 C18.89865234 9.48267578 19.77972656 9.52199219 20.6875 9.5625 C21.58017578 9.60568359 22.47285156 9.64886719 23.39257812 9.69335938 C25.59490108 9.79935353 27.79733473 9.90142051 30 10 C30.495 10.99 30.495 10.99 31 12 C26.81910808 12.04961351 22.63837434 12.08582016 18.45727539 12.10986328 C17.03634657 12.11989146 15.61543822 12.13351741 14.19458008 12.15087891 C12.14659556 12.17526821 10.09888502 12.1865149 8.05078125 12.1953125 C6.82012939 12.20578613 5.58947754 12.21625977 4.3215332 12.22705078 C1.06815613 12.00465896 -1.1244619 11.50807763 -4 10 C-4.33 9.34 -4.66 8.68 -5 8 C-5.556875 8.144375 -6.11375 8.28875 -6.6875 8.4375 C-9.11384195 9.02769128 -11.54906345 9.523429 -14 10 C-13.125 6.125 -13.125 6.125 -12 5 C-10.54379021 4.86946327 -9.08470974 4.77016965 -7.625 4.6875 C-3.83092873 4.37111824 -3.83092873 4.37111824 -0.9375 1.9375 C-0.628125 1.298125 -0.31875 0.65875 0 0 Z " fill="#AA7F62" transform="translate(163,193)"/>
<path d="M0 0 C0.70318359 -0.01224609 1.40636719 -0.02449219 2.13085938 -0.03710938 C6.22932735 -0.04863272 9.37811442 0.36333258 13.0625 2.1875 C13.0625 2.8475 13.0625 3.5075 13.0625 4.1875 C11.4125 4.1875 9.7625 4.1875 8.0625 4.1875 C8.0625 4.8475 8.0625 5.5075 8.0625 6.1875 C5.66597472 6.26889142 3.27224564 6.32817009 0.875 6.375 C0.20146484 6.40013672 -0.47207031 6.42527344 -1.16601562 6.45117188 C-5.6094384 6.51619757 -8.44117569 5.99134843 -11.9375 3.1875 C-11.9375 2.5275 -11.9375 1.8675 -11.9375 1.1875 C-8.02129681 -0.08399454 -4.07177771 0.00371174 0 0 Z " fill="#564339" transform="translate(180.9375,196.8125)"/>
<path d="M0 0 C2.9375 0.1875 2.9375 0.1875 3.9375 1.1875 C4.17279412 6.71691176 4.17279412 6.71691176 2.9375 9.1875 C0.5625 9.9375 0.5625 9.9375 -2.0625 10.1875 C-3.0525 9.5275 -4.0425 8.8675 -5.0625 8.1875 C-5.375 5.1875 -5.375 5.1875 -5.0625 2.1875 C-3.0625 0.1875 -3.0625 0.1875 0 0 Z " fill="#FE585A" transform="translate(206.0625,67.8125)"/>
<path d="M0 0 C-1.85714286 8.57142857 -1.85714286 8.57142857 -5 12 C-6.65 11.67 -8.3 11.34 -10 11 C-8.73396788 6.69549079 -5.08358566 0 0 0 Z " fill="#017E0E" transform="translate(178,173)"/>
<path d="M0 0 C0.99 0 1.98 0 3 0 C2.71515154 1.73030291 2.42180062 3.45920714 2.125 5.1875 C1.96257812 6.15042969 1.80015625 7.11335937 1.6328125 8.10546875 C1.01960483 10.91032604 0.14333657 13.37224747 -1 16 C-2.32 15.34 -3.64 14.68 -5 14 C-4.72285156 13.32453125 -4.44570312 12.6490625 -4.16015625 11.953125 C-3.79792969 11.06109375 -3.43570313 10.1690625 -3.0625 9.25 C-2.52302734 7.92742187 -2.52302734 7.92742187 -1.97265625 6.578125 C-1.14643424 4.38813896 -0.50630057 2.28101729 0 0 Z " fill="#2D2920" transform="translate(192,136)"/>
<path d="M0 0 C2.1875 0.3125 2.1875 0.3125 4 1 C5.125 4.75 5.125 4.75 4 7 C2.35 7 0.7 7 -1 7 C-1.66 5.68 -2.32 4.36 -3 3 C-1.75 1.4375 -1.75 1.4375 0 0 Z " fill="#292520" transform="translate(210,57)"/>
<path d="M0 0 C1.134375 0.020625 2.26875 0.04125 3.4375 0.0625 C0.60319547 3.3167015 -1.24857774 4.5831753 -5.5625 5.0625 C-4.43693182 0.07784091 -4.43693182 0.07784091 0 0 Z " fill="#9A745B" transform="translate(154.5625,197.9375)"/>
<path d="M0 0 C2.31 0.66 4.62 1.32 7 2 C7 2.33 7 2.66 7 3 C5.88625 3.309375 4.7725 3.61875 3.625 3.9375 C0.2054845 4.82326483 0.2054845 4.82326483 -2 6 C-2.66 5.34 -3.32 4.68 -4 4 C-2.68 2.68 -1.36 1.36 0 0 Z " fill="#322E20" transform="translate(160,170)"/>
<path d="M0 0 C0.33 0 0.66 0 1 0 C1 7.59 1 15.18 1 23 C0.67 23 0.34 23 0 23 C0 15.41 0 7.82 0 0 Z " fill="#231F1F" transform="translate(232,89)"/>
<path d="M0 0 C3.465 1.98 3.465 1.98 7 4 C6.67 4.66 6.34 5.32 6 6 C4.125 5.8125 4.125 5.8125 2 5 C0.75 2.4375 0.75 2.4375 0 0 Z " fill="#E21F15" transform="translate(228,73)"/>
<path d="M0 0 C0.99 0 1.98 0 3 0 C2.67 2.31 2.34 4.62 2 7 C1.01 6.67 0.02 6.34 -1 6 C-0.67 4.02 -0.34 2.04 0 0 Z " fill="#363220" transform="translate(192,136)"/>
<path d="M0 0 C4.62 0 9.24 0 14 0 C14 0.33 14 0.66 14 1 C9.38 1 4.76 1 0 1 C0 0.67 0 0.34 0 0 Z " fill="#231E1F" transform="translate(163,210)"/>
<path d="M0 0 C4.29 0 8.58 0 13 0 C13 0.33 13 0.66 13 1 C8.71 1 4.42 1 0 1 C0 0.67 0 0.34 0 0 Z " fill="#231F1F" transform="translate(209,36)"/>
<path d="M0 0 C3.96 0 7.92 0 12 0 C12 0.33 12 0.66 12 1 C8.04 1 4.08 1 0 1 C0 0.67 0 0.34 0 0 Z " fill="#221F20" transform="translate(49,219)"/>
<path d="M0 0 C3.96 0 7.92 0 12 0 C12 0.33 12 0.66 12 1 C8.04 1 4.08 1 0 1 C0 0.67 0 0.34 0 0 Z " fill="#231F20" transform="translate(184,210)"/>
<path d="M0 0 C3.3 0 6.6 0 10 0 C10 0.33 10 0.66 10 1 C6.7 1 3.4 1 0 1 C0 0.67 0 0.34 0 0 Z " fill="#231E20" transform="translate(85,212)"/>
<path d="M0 0 C0.33 0 0.66 0 1 0 C1 3.3 1 6.6 1 10 C0.67 10 0.34 10 0 10 C0 6.7 0 3.4 0 0 Z " fill="#231E20" transform="translate(247,65)"/>
<path d="M0 0 C1.98 0 3.96 0 6 0 C6 0.33 6 0.66 6 1 C4.02 1 2.04 1 0 1 C0 0.67 0 0.34 0 0 Z " fill="#221F1F" transform="translate(27,206)"/>
<path d="M0 0 C0.99 1.485 0.99 1.485 2 3 C1.67 3.66 1.34 4.32 1 5 C0.67 3.35 0.34 1.7 0 0 Z " fill="#221E20" transform="translate(240,51)"/>
<path d="M0 0 C1.65 0 3.3 0 5 0 C5 0.33 5 0.66 5 1 C3.35 1 1.7 1 0 1 C0 0.67 0 0.34 0 0 Z " fill="#221E1F" transform="translate(148,206)"/>
<path d="M0 0 C1 4 1 4 1 4 Z " fill="#231E20" transform="translate(8,192)"/>
<path d="M0 0 C1 4 1 4 1 4 Z " fill="#231F20" transform="translate(231,113)"/>
<path d="M0 0 C3 1 3 1 3 1 Z " fill="#231E1F" transform="translate(62,218)"/>
<path d="M0 0 C3 1 3 1 3 1 Z " fill="#221F20" transform="translate(46,218)"/>
<path d="M0 0 C3 1 3 1 3 1 Z " fill="#231F1F" transform="translate(95,211)"/>
<path d="M0 0 C3 1 3 1 3 1 Z " fill="#231F20" transform="translate(159,209)"/>
<path d="" fill="#231F20" transform="translate(0,0)"/>
<path d="" fill="#221F1F" transform="translate(0,0)"/>
<path d="" fill="#231F20" transform="translate(0,0)"/>
<path d="" fill="#231F20" transform="translate(0,0)"/>
<path d="" fill="#221F1F" transform="translate(0,0)"/>
<path d="M0 0 C3 1 3 1 3 1 Z " fill="#231F1F" transform="translate(202,38)"/>
<path d="M0 0 C3 1 3 1 3 1 Z " fill="#231F20" transform="translate(223,37)"/>
<path d="M0 0 C3 1 3 1 3 1 Z " fill="#231E1F" transform="translate(205,37)"/>
<path d="M0 0 C2 1 2 1 2 1 Z " fill="#221E20" transform="translate(65,217)"/>
<path d="M0 0 C2 1 2 1 2 1 Z " fill="#231E20" transform="translate(44,217)"/>
<path d="M0 0 C2 1 2 1 2 1 Z " fill="#231F20" transform="translate(68,216)"/>
<path d="M0 0 C2 1 2 1 2 1 Z " fill="#231F20" transform="translate(42,216)"/>
<path d="M0 0 C2 1 2 1 2 1 Z " fill="#231F20" transform="translate(98,210)"/>
<path d="M0 0 C2 1 2 1 2 1 Z " fill="#231F20" transform="translate(196,209)"/>
<path d="M0 0 C2 1 2 1 2 1 Z " fill="#231E1F" transform="translate(100,209)"/>
<path d="M0 0 C2 1 2 1 2 1 Z " fill="#231F1F" transform="translate(110,208)"/>
<path d="M0 0 C2 1 2 1 2 1 Z " fill="#221F1F" transform="translate(113,207)"/>
<path d="" fill="#231E20" transform="translate(0,0)"/>
<path d="M0 0 C2 1 2 1 2 1 Z " fill="#231F20" transform="translate(153,205)"/>
<path d="M0 0 C2 1 2 1 2 1 Z " fill="#231E20" transform="translate(117,205)"/>
<path d="M0 0 C2 1 2 1 2 1 Z " fill="#221F20" transform="translate(25,205)"/>
<path d="" fill="#231F20" transform="translate(0,0)"/>
<path d="M0 0 C2 1 2 1 2 1 Z " fill="#231F20" transform="translate(209,199)"/>
<path d="" fill="#221F20" transform="translate(0,0)"/>
<path d="M0 0 C2 1 2 1 2 1 Z " fill="#231F20" transform="translate(132,197)"/>
<path d="M0 0 C2 1 2 1 2 1 Z " fill="#231F20" transform="translate(17,185)"/>
<path d="M0 0 C2 1 2 1 2 1 Z " fill="#231F20" transform="translate(20,184)"/>
<path d="M0 0 C2 1 2 1 2 1 Z " fill="#231F20" transform="translate(23,183)"/>
<path d="M0 0 C2 1 2 1 2 1 Z " fill="#231F20" transform="translate(26,182)"/>
<path d="M0 0 C2 1 2 1 2 1 Z " fill="#231F1F" transform="translate(201,181)"/>
<path d="M0 0 C2 1 2 1 2 1 Z " fill="#231F20" transform="translate(29,181)"/>
<path d="M0 0 C2 1 2 1 2 1 Z " fill="#231F20" transform="translate(32,180)"/>
<path d="M0 0 C2 1 2 1 2 1 Z " fill="#221F20" transform="translate(35,179)"/>
<path d="M0 0 C2 1 2 1 2 1 Z " fill="#221F20" transform="translate(37,178)"/>
<path d="M0 0 C2 1 2 1 2 1 Z " fill="#231E20" transform="translate(40,177)"/>
<path d="M0 0 C2 1 2 1 2 1 Z " fill="#231F20" transform="translate(42,176)"/>
<path d="M0 0 C2 1 2 1 2 1 Z " fill="#231F20" transform="translate(44,175)"/>
<path d="M0 0 C2 1 2 1 2 1 Z " fill="#231F20" transform="translate(49,173)"/>
<path d="M0 0 C2 1 2 1 2 1 Z " fill="#231F1F" transform="translate(51,172)"/>
<path d="M0 0 C2 1 2 1 2 1 Z " fill="#231E20" transform="translate(53,171)"/>
<path d="M0 0 C2 1 2 1 2 1 Z " fill="#231E1F" transform="translate(55,170)"/>
<path d="M0 0 C2 1 2 1 2 1 Z " fill="#231F20" transform="translate(57,169)"/>
<path d="M0 0 C2 1 2 1 2 1 Z " fill="#231F20" transform="translate(59,168)"/>
<path d="M0 0 C2 1 2 1 2 1 Z " fill="#231E20" transform="translate(61,167)"/>
<path d="M0 0 C2 1 2 1 2 1 Z " fill="#231F1F" transform="translate(63,166)"/>
<path d="M0 0 C2 1 2 1 2 1 Z " fill="#221F1F" transform="translate(72,161)"/>
<path d="M0 0 C2 1 2 1 2 1 Z " fill="#231F20" transform="translate(80,156)"/>
<path d="" fill="#231E20" transform="translate(0,0)"/>
<path d="" fill="#221F20" transform="translate(0,0)"/>
<path d="" fill="#231E1F" transform="translate(0,0)"/>
<path d="" fill="#231F20" transform="translate(0,0)"/>
<path d="" fill="#231F20" transform="translate(0,0)"/>
<path d="" fill="#221F1F" transform="translate(0,0)"/>
<path d="" fill="#231F20" transform="translate(0,0)"/>
<path d="" fill="#231F1F" transform="translate(0,0)"/>
<path d="" fill="#231F20" transform="translate(0,0)"/>
<path d="" fill="#221E1F" transform="translate(0,0)"/>
<path d="" fill="#231F1F" transform="translate(0,0)"/>
<path d="" fill="#231F20" transform="translate(0,0)"/>
<path d="" fill="#231F20" transform="translate(0,0)"/>
<path d="" fill="#231F1F" transform="translate(0,0)"/>
<path d="M0 0 C2 1 2 1 2 1 Z " fill="#221F20" transform="translate(228,39)"/>
<path d="M0 0 C2 1 2 1 2 1 Z " fill="#231F20" transform="translate(200,39)"/>
<path d="M0 0 C2 1 2 1 2 1 Z " fill="#231F20" transform="translate(226,38)"/>
<path d="" fill="#231E1F" transform="translate(0,0)"/>
<path d="" fill="#231F20" transform="translate(0,0)"/>
<path d="" fill="#221F1F" transform="translate(0,0)"/>
<path d="" fill="#231F20" transform="translate(0,0)"/>
<path d="" fill="#231F20" transform="translate(0,0)"/>
<path d="" fill="#231F20" transform="translate(0,0)"/>
<path d="" fill="#231F20" transform="translate(0,0)"/>
<path d="" fill="#231E20" transform="translate(0,0)"/>
<path d="" fill="#221F20" transform="translate(0,0)"/>
<path d="" fill="#231F20" transform="translate(0,0)"/>
<path d="" fill="#231F20" transform="translate(0,0)"/>
<path d="" fill="#231F20" transform="translate(0,0)"/>
<path d="" fill="#231F1F" transform="translate(0,0)"/>
<path d="" fill="#231F20" transform="translate(0,0)"/>
<path d="" fill="#231E1F" transform="translate(0,0)"/>
<path d="" fill="#231F20" transform="translate(0,0)"/>
<path d="" fill="#231F20" transform="translate(0,0)"/>
<path d="" fill="#231F20" transform="translate(0,0)"/>
<path d="" fill="#231F1F" transform="translate(0,0)"/>
<path d="" fill="#231F20" transform="translate(0,0)"/>
<path d="" fill="#231F1F" transform="translate(0,0)"/>
<path d="" fill="#231F20" transform="translate(0,0)"/>
<path d="" fill="#231F20" transform="translate(0,0)"/>
<path d="" fill="#231F20" transform="translate(0,0)"/>
<path d="" fill="#231F20" transform="translate(0,0)"/>
<path d="" fill="#231E20" transform="translate(0,0)"/>
<path d="" fill="#231F20" transform="translate(0,0)"/>
<path d="" fill="#231F20" transform="translate(0,0)"/>
<path d="" fill="#231F20" transform="translate(0,0)"/>
<path d="" fill="#231F1F" transform="translate(0,0)"/>
<path d="" fill="#231F20" transform="translate(0,0)"/>
<path d="" fill="#221F20" transform="translate(0,0)"/>
<path d="" fill="#231E1F" transform="translate(0,0)"/>
<path d="" fill="#231F20" transform="translate(0,0)"/>
<path d="" fill="#231E20" transform="translate(0,0)"/>
<path d="" fill="#231E20" transform="translate(0,0)"/>
<path d="" fill="#231F1F" transform="translate(0,0)"/>
<path d="" fill="#231E20" transform="translate(0,0)"/>
<path d="" fill="#231F20" transform="translate(0,0)"/>
<path d="" fill="#231F20" transform="translate(0,0)"/>
<path d="" fill="#231E20" transform="translate(0,0)"/>
<path d="" fill="#231F20" transform="translate(0,0)"/>
<path d="" fill="#231F20" transform="translate(0,0)"/>
<path d="" fill="#231F20" transform="translate(0,0)"/>
<path d="" fill="#231F1F" transform="translate(0,0)"/>
<path d="" fill="#231F20" transform="translate(0,0)"/>
<path d="" fill="#231F20" transform="translate(0,0)"/>
<path d="" fill="#231F20" transform="translate(0,0)"/>
<path d="" fill="#231F20" transform="translate(0,0)"/>
<path d="" fill="#231F20" transform="translate(0,0)"/>
<path d="" fill="#231E20" transform="translate(0,0)"/>
<path d="" fill="#231F20" transform="translate(0,0)"/>
<path d="" fill="#231F20" transform="translate(0,0)"/>
<path d="" fill="#231F20" transform="translate(0,0)"/>
<path d="" fill="#231E20" transform="translate(0,0)"/>
<path d="" fill="#231F20" transform="translate(0,0)"/>
<path d="" fill="#231F20" transform="translate(0,0)"/>
<path d="" fill="#231F1F" transform="translate(0,0)"/>
<path d="" fill="#221F20" transform="translate(0,0)"/>
<path d="" fill="#231F20" transform="translate(0,0)"/>
<path d="" fill="#231F20" transform="translate(0,0)"/>
<path d="" fill="#231F20" transform="translate(0,0)"/>
<path d="" fill="#231F20" transform="translate(0,0)"/>
<path d="" fill="#231F20" transform="translate(0,0)"/>
<path d="" fill="#231E1F" transform="translate(0,0)"/>
<path d="" fill="#221F20" transform="translate(0,0)"/>
<path d="" fill="#231F20" transform="translate(0,0)"/>
<path d="" fill="#231F20" transform="translate(0,0)"/>
<path d="" fill="#231F20" transform="translate(0,0)"/>
<path d="" fill="#231F20" transform="translate(0,0)"/>
<path d="" fill="#231F1F" transform="translate(0,0)"/>
<path d="" fill="#221F20" transform="translate(0,0)"/>
<path d="" fill="#231E20" transform="translate(0,0)"/>
<path d="" fill="#231F20" transform="translate(0,0)"/>
<path d="" fill="#231F20" transform="translate(0,0)"/>
<path d="" fill="#231F20" transform="translate(0,0)"/>
<path d="" fill="#221F20" transform="translate(0,0)"/>
<path d="" fill="#231F20" transform="translate(0,0)"/>
<path d="" fill="#231F20" transform="translate(0,0)"/>
<path d="" fill="#231F20" transform="translate(0,0)"/>
<path d="" fill="#231E20" transform="translate(0,0)"/>
<path d="" fill="#231E20" transform="translate(0,0)"/>
<path d="" fill="#221F20" transform="translate(0,0)"/>
<path d="" fill="#231F20" transform="translate(0,0)"/>
<path d="" fill="#231F20" transform="translate(0,0)"/>
<path d="" fill="#231F20" transform="translate(0,0)"/>
<path d="" fill="#231F1F" transform="translate(0,0)"/>
<path d="" fill="#231F20" transform="translate(0,0)"/>
<path d="" fill="#231F20" transform="translate(0,0)"/>
<path d="" fill="#231F20" transform="translate(0,0)"/>
<path d="" fill="#231F20" transform="translate(0,0)"/>
<path d="" fill="#231F20" transform="translate(0,0)"/>
<path d="" fill="#231F20" transform="translate(0,0)"/>
<path d="" fill="#231F20" transform="translate(0,0)"/>
<path d="" fill="#231E20" transform="translate(0,0)"/>
<path d="" fill="#231F20" transform="translate(0,0)"/>
<path d="" fill="#231F20" transform="translate(0,0)"/>
<path d="" fill="#231F20" transform="translate(0,0)"/>
<path d="" fill="#231F20" transform="translate(0,0)"/>
<path d="" fill="#231F20" transform="translate(0,0)"/>
<path d="" fill="#231F20" transform="translate(0,0)"/>
<path d="" fill="#221F20" transform="translate(0,0)"/>
<path d="" fill="#231F20" transform="translate(0,0)"/>
<path d="" fill="#231F20" transform="translate(0,0)"/>
<path d="" fill="#231F20" transform="translate(0,0)"/>
<path d="" fill="#231F20" transform="translate(0,0)"/>
<path d="" fill="#231F20" transform="translate(0,0)"/>
<path d="" fill="#231F20" transform="translate(0,0)"/>
<path d="" fill="#231F20" transform="translate(0,0)"/>
<path d="" fill="#231F20" transform="translate(0,0)"/>
<path d="" fill="#231F20" transform="translate(0,0)"/>
<path d="" fill="#231F20" transform="translate(0,0)"/>
<path d="" fill="#231F20" transform="translate(0,0)"/>
<path d="" fill="#231F20" transform="translate(0,0)"/>
<path d="" fill="#231F20" transform="translate(0,0)"/>
<path d="" fill="#221E20" transform="translate(0,0)"/>
<path d="" fill="#231F20" transform="translate(0,0)"/>
<path d="" fill="#231F20" transform="translate(0,0)"/>
<path d="" fill="#231F20" transform="translate(0,0)"/>
<path d="" fill="#231F20" transform="translate(0,0)"/>
<path d="" fill="#221F20" transform="translate(0,0)"/>
<path d="" fill="#231F20" transform="translate(0,0)"/>
<path d="" fill="#231F20" transform="translate(0,0)"/>
<path d="" fill="#231F20" transform="translate(0,0)"/>
<path d="" fill="#221F20" transform="translate(0,0)"/>
<path d="" fill="#231F20" transform="translate(0,0)"/>
<path d="" fill="#231F1F" transform="translate(0,0)"/>
<path d="" fill="#231F20" transform="translate(0,0)"/>
<path d="" fill="#231F20" transform="translate(0,0)"/>
<path d="" fill="#221F20" transform="translate(0,0)"/>
<path d="" fill="#231F20" transform="translate(0,0)"/>
<path d="" fill="#231F20" transform="translate(0,0)"/>
<path d="" fill="#231F20" transform="translate(0,0)"/>
<path d="" fill="#231E20" transform="translate(0,0)"/>
<path d="" fill="#221F20" transform="translate(0,0)"/>
<path d="" fill="#231F20" transform="translate(0,0)"/>
</svg>
